<svg xmlns="http://www.w3.org/2000/svg" width="16" height="16" viewBox="0 0 16 16" fill="none">
    <path fill="white" d="M8 0C3.58 0 0 3.58 0 8c0 3.54 2.29 6.53 5.47 7.59.4.07.55-.17.55-.37 0-.19-.01-.83-.01-1.5-2.16.47-2.62-1.04-2.62-1.04-.35-.89-.85-1.13-.85-1.13-.7-.48.05-.47.05-.47.77.05 1.18.79 1.18.79.68 1.16 1.78.83 2.21.63.07-.49.27-.83.49-1.02-1.73-.2-3.55-.87-3.55-3.87 0-.85.3-1.55.79-2.1-.08-.2-.34-1.02.07-2.12 0 0 .66-.21 2.16.79.63-.18 1.31-.27 1.99-.27.68 0 1.36.09 1.99.27 1.5-1 2.16-.79 2.16-.79.41 1.1.15 1.92.07 2.12.49.55.79 1.25.79 2.1 0 3-1.82 3.67-3.55 3.87.27.23.51.66.51 1.33 0 .96-.01 1.73-.01 1.96 0 .2.15.45.55.37C13.71 14.53 16 11.54 16 8c0-4.42-3.58-8-8-8z"/>
</svg>
